<svg xmlns="http://www.w3.org/2000/svg" width="100.392" height="25.678" viewBox="0 0 100.392 25.678">
  <g id="logo" transform="translate(0 -1)">
    <path id="パス_14" data-name="パス 14" d="M31.744,1,24.553,26.678H21.708L15.847,5.345,10.036,26.678H7.276L0,1H3.254l5.64,20.6L14.466,1h2.982L23.02,21.788,28.643,1Z" transform="translate(0 0)"/>
    <path id="パス_15" data-name="パス 15" d="M269.128,26.678H252.412V1h16.716V3.76H255.581v7.48h13.205V14H255.581v9.917h13.546Z" transform="translate(-205.445 0)"/>
    <path id="パス_16" data-name="パス 16" d="M424.515,26.678V1H430.7a20.947,20.947,0,0,1,8.52,1.414,11.02,11.02,0,0,1,4.9,4.32,13.308,13.308,0,0,1,1.8,7.131,13.052,13.052,0,0,1-3.4,9.031q-3.4,3.783-11.748,3.783Zm3.169-22.986V23.986h3.306q6.083,0,8.843-2.573t2.76-7.6A9.822,9.822,0,0,0,439.8,6.367Q437,3.692,430.99,3.692h-3.306Z" transform="translate(-345.524 0)"/>
  </g>
</svg>
